<svg version="1.1" xmlns="http://www.w3.org/2000/svg" viewBox="0 0 425.2 72.4" width="425" height="72">
<style type="text/css">
	.st0{fill:#000;}
	.st1{fill:none;}
</style>
<polygon class="st0" points="141.2,26.1 129.3,26.1 129.3,11.7 124.5,16.5 124.5,26.1 112.4,26.1 112.4,34.5 124.5,34.5 124.5,72.4
	129.3,67.6 129.3,34.5 141.2,34.5 141.2,65 155.7,50.6 155.7,40.5 "/>
<polygon class="st0" points="334.6,11.7 281.8,64.6 302.2,64.6 318.3,48.4 318.3,72.4 323.1,67.6 323.1,43.6 334.6,32.1 "/>
<line class="st1" x1="334.6" y1="11.7" x2="334.6" y2="32.1"/>
<rect x="161.7" y="26.1" class="st0" width="8.4" height="38.4"/>
<polygon class="st0" points="190.5,51.2 190.5,11.7 176.1,26.1 176.1,72.4 201.9,46.5 201.9,39.8 "/>
<rect x="245.1" y="26.1" class="st0" width="34.3" height="8.4"/>
<polygon class="st0" points="279.4,38.1 245.1,38.1 245.1,42.9 274.6,42.9 245.2,72.4 265.6,72.4 289.6,48.3 "/>
<rect x="207.9" y="26.1" class="st0" width="31.2" height="8.4"/>
<polygon class="st0" points="193.5,64.6 239.1,64.6 239.1,50.1 207.9,50.1 "/>
<polygon class="st0" points="207.9,46.5 230.7,46.5 234.3,42.9 239.1,42.9 239.1,38.1 207.9,38.1 "/>
<polygon class="st0" points="49.9,14.1 0,14.1 8.4,22.5 45.1,22.5 26.8,40.9 50.4,64.6 57.2,64.6 40.3,47.7 61.9,26.1 "/>
<polygon class="st0" points="86,26.1 70.4,26.1 62,34.5 86,34.5 "/>
<polygon class="st0" points="86,38.1 58.4,38.1 50,46.5 86,46.5 "/>
<polygon class="st0" points="92,54.2 80.6,65.6 80.6,72.4 106.4,46.5 106.4,11.7 92,26.1 "/>
<rect x="96.7" y="1.7" transform="matrix(0.7071 -0.7071 0.7071 0.7071 25.4602 72.879)" class="st0" width="8.1" height="8.1"/>
<rect x="88" y="10.4" transform="matrix(0.7071 -0.7071 0.7071 0.7071 16.7517 69.272)" class="st0" width="8.1" height="8.1"/>
<path class="st0" d="M351.5,11.7v9h1.6V17h3.1v3.7h1.6v-9H351.5z M353.1,15.4v-2.1h3.1v2.1H353.1z"/>
<path class="st0" d="M415.6,11.7v9h1.6V17h3.1v3.7h1.6v-9H415.6z M417.2,15.4v-2.1h3.1v2.1H417.2z"/>
<path class="st0" d="M378.9,11.7v9h1.6V17h3.1v3.7h1.6v-9H378.9z M380.5,15.4v-2.1h3.1v2.1H380.5z"/>
<rect x="367.5" y="11.7" class="st0" width="1.6" height="9"/>
<rect x="404.2" y="11.7" class="st0" width="1.6" height="9"/>
<rect x="423.6" y="11.7" class="st0" width="1.6" height="9"/>
<polygon class="st0" points="388.5,19.1 388.5,11.7 386.9,11.7 386.9,20.7 393.2,20.7 393.2,19.1 "/>
<polygon class="st0" points="348.3,11.7 346,15.7 343.7,11.7 342.2,11.7 342.2,20.7 343.8,20.7 343.8,15.1 345.2,17.6 345.2,17.6
	346.7,17.6 346.7,17.6 348.2,15.1 348.2,20.7 349.7,20.7 349.7,11.7 "/>
<polygon class="st0" points="401,11.7 398.7,15.7 396.4,11.7 395,11.7 395,20.7 396.5,20.7 396.5,15.1 398,17.6 398,17.6
	399.4,17.6 399.4,17.6 400.9,15.1 400.9,20.7 402.5,20.7 402.5,11.7 "/>
<polygon class="st0" points="365.8,13.3 365.8,11.7 359.5,11.7 359.5,20.7 365.8,20.7 365.8,15.4 362.7,15.4 362.7,17 364.2,17
	364.2,17 364.2,19.1 361.1,19.1 361.1,13.3 "/>
<polygon class="st0" points="372.4,19.1 372.4,13.3 377.1,13.3 377.1,11.7 370.9,11.7 370.9,20.7 377.1,20.7 377.1,19.1 "/>
<path class="st0" d="M413.8,11.7h-6.3v9h1.6v-3.2l2.6,3.2h2l-3.1-3.7h3.1L413.8,11.7z M412.3,15.4h-3.1v-2.1h3.1V15.4z"/>
<polygon class="st0" points="213,11.7 213,15.4 209.5,15.4 209.5,11.7 208,11.7 208,20.7 209.5,20.7 209.5,17 213,17 213,20.7
	214.5,20.7 214.5,11.7 "/>
<path class="st0" d="M217.1,11.7v9h1.6V17h3.4v3.7h1.6v-9H217.1z M218.7,15.4v-2.1h3.4v2.1H218.7z"/>
<polygon class="st0" points="249.5,11.7 249.5,19.1 246.1,19.1 246.1,11.7 244.5,11.7 244.5,20.7 251.1,20.7 251.1,11.7 "/>
<polygon class="st0" points="241.9,13.3 241.9,11.7 235.4,11.7 235.4,17 240.4,17 240.4,19.1 235.4,19.1 235.4,20.7 241.9,20.7
	241.9,15.4 236.9,15.4 236.9,13.3 "/>
<polygon class="st0" points="269.3,13.3 269.3,11.7 262.8,11.7 262.8,20.7 269.3,20.7 269.3,19.1 264.4,19.1 264.4,17 269.3,17
	269.3,15.4 264.4,15.4 264.4,13.3 "/>
<polygon class="st0" points="258.6,11.7 258.6,17.6 255.2,11.7 253.7,11.7 253.7,20.7 255.2,20.7 255.2,14.8 258.6,20.7 260.2,20.7
	260.2,11.7 "/>
<polygon class="st0" points="232.8,11.7 226.2,11.7 226.2,13.3 228.7,13.3 228.7,20.7 230.3,20.7 230.3,13.3 232.8,13.3 "/>
<rect x="286.2" y="11.7" class="st0" width="1.6" height="9"/>
<polygon class="st0" points="305.3,11.7 305.3,19.1 301.8,19.1 301.8,11.7 300.3,11.7 300.3,20.7 306.8,20.7 306.8,11.7 "/>
<polygon class="st0" points="282.1,11.7 279.8,15.7 277.5,11.7 276.1,11.7 276.1,20.7 277.6,20.7 277.6,15.1 279.1,17.6 279.1,17.6
	280.6,17.6 280.6,17.6 282,15.1 282,20.7 283.6,20.7 283.6,11.7 "/>
<polygon class="st0" points="297.7,11.7 295.7,11.7 291.9,16.2 291.9,11.7 290.3,11.7 290.3,20.7 291.9,20.7 291.9,18.6 292.9,17.4
	295.7,20.7 297.7,20.7 293.9,16.2 "/>
<polygon class="st0" points="334.6,39.7 351.9,39.7 351.9,44.6 334.6,44.6 334.6,64.6 356.3,64.6 356.3,57 339,57 339,52.1
	356.3,52.1 356.3,32.1 342.2,32.1 "/>
<path class="st0" d="M362.3,32.1v32.4h21.6V32.1H362.3z M379.6,57h-13v-4.3l3.2-3.2v-9.7h9.7L379.6,57z"/>
<polygon class="st0" points="389.9,32.1 389.9,64.6 394.2,64.6 394.2,47.8 397.5,44.6 397.5,32.1 "/>
<polygon class="st0" points="403.5,32.1 403.5,39.7 417.5,39.7 417.5,64.6 421.9,64.6 421.9,47.8 425.1,44.6 425.1,32.1 "/>
</svg>