<?xml version="1.0" encoding="utf-8"?>
<!-- Generator: Adobe Illustrator 24.0.2, SVG Export Plug-In . SVG Version: 6.00 Build 0)  -->
<svg version="1.1" id="レイヤー_1" xmlns="http://www.w3.org/2000/svg" xmlns:xlink="http://www.w3.org/1999/xlink" x="0px"
	 y="0px" viewBox="0 0 301 128.7" style="enable-background:new 0 0 301 128.7;" xml:space="preserve">
<style type="text/css">
	.st0{fill:#FF387D;}
</style>
<title>contents_logo_osaka</title>
<g id="レイヤー_2_1_">
	<g id="レイヤー_1-2">
		<g>
			<g>
				<path class="st0" d="M218,35.8c-0.2,0.1-0.5,0.2-0.7,0.3C217.6,36,217.8,35.9,218,35.8z"/>
				<path class="st0" d="M244.9,69.2c-5.3-0.3-17.8-4.7-25.7-7.6c2.3-1.8,4-3.3,4.1-3.3c0.6-0.1,0.4,0.1,1,0c0.2,0,0.3-0.2,0.4-0.3
					s0.3,0,0.3-0.1c0.1-0.2,0.1-0.3,0.2-0.4c0.1-0.1,0.1-0.2,0.2-0.4c0-0.1,0-0.2-0.1-0.3c0-0.2,0.1-0.4,0.1-0.6s0.1-0.6,0-0.8
					s-0.3,0-0.5-0.2c0,0-0.2,0.2-0.3,0.2c-0.2,0-0.4-0.2-0.6-0.3c-0.2-0.2-0.5-0.3-0.7-0.5c-0.2-0.2-0.7-0.5-0.9-0.7
					c0.1,0.3,0,0.3-0.1,0.4c-0.1,0-0.2,0.1-0.3,0.1c-0.6-0.1-1.3-0.2-1.9-0.2c0,0-0.1,0-0.1,0c-0.2-0.1-0.3-0.3-0.5-0.4
					c-0.1-0.2-0.3-0.2-0.6-0.2c-0.2-0.3-0.4-0.6-0.6-1c-0.2-0.6-0.3-1.2-0.4-1.7c0.2,0,0.3,0,0.5,0c0.1,0,3.9-1.4,4.1-1.5
					c0.2-0.1,0.4-0.2,0.6-0.2c0.1,0,0.1,0,0.2,0c0,0.8-0.1,1.4-0.1,1.6c-1.5,0.6-3,1.4-4.3,2.3c1.7-1,2.7-0.5,1.8-0.4
					c1.2-0.2,2.4,0,3.5,0.5c0.1,0.1,0.2,0.3,0.2,0.3c0.6,0.2,0.6-0.4,0.8-0.5c0.1-0.1,0.3-0.2,0.4-0.3c0.2-0.1,0.2-0.4,0.3-0.6
					c0.1-0.2,0.3-0.1,0.4-0.3s0.4-0.3,0.3,0.2c0.2-0.2,0.3-0.3,0.4-0.5c0-0.1,0.2-0.2,0.2-0.2c0-0.1-0.1-0.4-0.1-0.5
					c0.1-2.1,0.3-4.1,0.7-6.2c0-0.3,0.3-0.5,0.3-0.7c0-0.3,0.1-0.5,0.2-0.7c0.1-0.1,0.5,0,0.6,0.4c-0.2-1.8,0-1.8,0.1-1.8
					s0.2-0.1,0.2-0.2c0,0-0.1-0.9-0.1-0.9c-0.1-0.4-0.3-0.3-0.4-0.7c0-0.2-0.1-0.4-0.2-0.6c-0.1-0.1-0.5-0.3-0.7-0.4
					c-0.4-0.4-0.5-0.6-0.8-0.9c-0.2-0.2-0.4,0-0.6-0.2c-0.2-0.2-0.1-0.5-0.2-0.6s0-0.2-0.1-0.3c-0.1-0.1-0.4-0.3-0.5-0.3
					s-0.5,0.2-0.8-0.3c0-0.1-0.4,0-0.7,0.1c0.2,0.1-0.2,1-1,1.4c-0.8,0.4-4.1,1.9-6.3,2.8c3.1-2.8,6.8-6,7-6.1
					c0.2-0.1-0.4,0.7-1.2,1.1c0.6-0.4,3.9-2,4.1-2c0.1,0,1.1,0,1.3,0c0.3-0.1,0.3-0.4,0.4-0.8c0.2-0.7,0.7-1,0.7-1.4
					c0.1-0.5,0.2-0.9,0.3-1.3c0-0.4,0-0.7,0-1.1c-0.2-0.5-1-0.7-1.5-1.1c0.3,0.3,0.7,0.5,0.6,0.6c-0.2,0.3-0.5,0.3-0.6,0.1
					c-0.1-0.4-0.4-0.9-0.7-1.2c-0.3-0.1-0.7-0.1-1.1-0.1c0.1,0.1,0,0.2-0.3,0.2c-0.5,0-1.7,0-2.1,0c0.6,0,1.6,0.1,1.2,0.6
					c-1.3,1.4-9.7,4.3-12.7,5.6c-0.6,0.3-2.1,0-2.4-0.9c0.1,0.5,0.1,0.9-0.2,1.3c-0.2,0.2,0.1,0.6,0.3,0.7c0.1,0,0.3,0,0.4,0.1
					c0.1,0.1,0,0.3,0.1,0.3c0,0,1.1,0.3,1.5,0.5c0.3,0.1,0.6,0.3,0.8,0.6c0.1,0.1,0.3,0.1,0.4,0.2c0.8-0.1,1.6,0,2.3,0.2
					c0.1,0.1-0.2,0.3-0.4,0.4c0.4-0.1,1.4-0.4,1.4-0.4c0-0.1-0.1-0.4,0-0.5s0.5-0.3,0.6-0.3c0.5-0.4,2.9-1.5,0.8-0.3
					c1.1-0.5,3.1-1.4,4.2-2c-1.7,2-5.3,6-6.9,7.8c-0.2,0.1-0.3,0.1-0.3,0.1c-0.3,0.1-0.7,0.1-1.1,0.1c-0.1,0-0.5-0.2-0.6-0.2
					c-0.1,0-0.4,0.2-0.7,0c0.2,0.4,0.4,1.3,0.1,1.4c0.1,0.3-0.2,0.4-0.2,0.8c0,0.4,0.1,0.7,0.3,1c0.2,0.2,0.6,0.1,0.8,0.6
					c0,0.1-0.1,0-0.5-0.4c0.1,0.2,1.6,4.2,2.1,6.2c0.4,1.5,0.1,1.9-0.8,2.1c0.4,0.1,0.8,0.3,0.9,0.6c0.1,0.2,0.2,0.4,0.3,0.5
					c0.1,0.1,0.1,0.2,0.2,0.3c0.2,0.1,0.4,0.1,0.6,0.3c0.1,0,0.1,0.1,0.2,0.1c0.1,0.3,0,0.4,0,0.7c0,0.1-0.2,0.2-0.2,0.3
					c-0.8,1.3-1.7,2.5-2.7,3.7c-0.4-0.1-0.8-0.3-1-0.3c-1-0.3-1.1-0.1-1.8,0.1c-0.2,0-0.5,0.5-0.9,0.6c-0.3,0-0.7,0.9-0.8,1.2
					c1-0.8,2.5-1,3.7-0.4c0.1,0,1.4,0.6,2.9,1.2c-2.2,2.3-4.3,4.5-4.8,4.6c-0.5,0.1-1.1,0.1-1.6-0.2c-0.2-0.2-0.4,0.1-0.6-0.8
					c0,0.2-0.1,0.4-0.2,0.3c-0.3-0.6-0.5-1.2-0.5-1.8c0-0.9,0.2-1.7,0.7-2.5c-0.4,0.4-1,1.7-1,1.6c-0.2,0.1-0.1,0.6-0.4,0.7
					c-0.1,0-0.3-0.1-0.4,0c0,0.1,0,0.2,0,0.3c0,0.3-0.3,0.3-0.2,0.6c0,0.1,0,0.3,0,0.4s0.2,0.3,0.1,0.4c-0.1,0.1-0.2-0.1-0.2-0.2
					c-0.2,0.3,1,2.4,0.8,2.6c0.3,0.5,0,0.6,0.3,0.9c0.2,0.3,0.9,0.6,1.1,0.5c0.3-0.2,0.6-0.1,1-0.4c2-1.6,5-4,7.7-6.2
					c1.7,0.6,3.3,1.4,4.8,2.3c0.1,0.1-0.3,0-3.7-1.8c3,1.7,6.9,3.7,10.2,5.5c0.5,0.3,3.8,2.6,5.2,3.4c0.8,0.4,1.4,0.7,2,0.9
					c0.4,0.1,3.1,0.3,3.7,0.6c-0.5-0.4,1.5-0.4,3.1-0.5c0.2,0,0.7-0.5,0.9-0.6c0.6-0.1,0.1-0.7,0.6-0.9c0.4-0.1,1.2-0.1,1.6-0.2
					c-2.1-0.4,3.2-2.1,3.4-2.3c0.2-0.2,1.2-1.3,1.2-1.8C250.7,68.3,248.8,69.4,244.9,69.2z M223.2,47.5c-1.7,0.9-3.4,1.7-5.2,2.4
					c-0.2,0-0.3,0-0.4-0.1c-0.1-0.5-0.2-0.9-0.2-1.3c1.3-0.6,5.1-2.4,5.3-2.5c0.2-0.1,0.5-0.1,0.8,0c0,0.5,0,0.9-0.1,1.4
					C223.3,47.4,223.3,47.4,223.2,47.5L223.2,47.5z M217.1,44.7c0.2-0.1,0.3-0.5,0.5-0.6c1.4-0.9,3.8-2.4,5.3-3.2
					c0.5,0.2,0.6,0.4,0.7,0.7c0,0,0,0.8-0.1,1.8c-0.4-0.2-0.6,0-1-0.2c0.2,0.2,0.2,0.6,0.1,0.6c-0.1,0-0.3,0-0.4,0
					c-0.1,0-4,2.3-5,2.9c0-0.2,0-0.2,0-0.2c0,0,0.1-0.7,0-0.8c-0.2-0.3-0.2-0.3-0.4-0.4c-0.1,0-0.1-0.1-0.2-0.1
					c-0.2-0.1-0.4-0.2-0.5-0.3C216.4,44.9,216.8,44.8,217.1,44.7z M214.3,59.8c1.2-0.7,3.5-2,3.6-2.2c0.1,0,0.3,0,0.4,0
					c0.1-0.1,0.3-0.1,0.4-0.2c0-0.1,0.1,0,0.2-0.1c0-0.1,0.1-0.1,0.1-0.2c0,0,0-0.1,0-0.1c0-0.1,0-0.2-0.1-0.2c0.4,0,0.9,0,0.9,0.1
					c0.3,0,0.5,0,0.8,0c-0.8,0.9-2.2,2.4-3.6,3.9C216,60.4,215.1,60.1,214.3,59.8L214.3,59.8z"/>
				<path class="st0" d="M233.3,59.3c1.4,1.3,2.8,2.8,4.7,2.5c1.5-0.2,2.9-0.7,4.1-1.6c0.8,0.5,1.5,1.1,2.1,1.5
					c0.6,0.6,1.3,1,2.2,1.1c0.7,0,1.5-0.2,2.2-0.5c0.7-0.2-0.5-0.7-0.5-0.8c0-0.3-0.4-0.3-0.7-0.4c-0.6-0.1-1.3-0.4-1.8-0.6
					c-0.2-0.1-1.7-0.9-2.3-1.2c0,0-0.1,0-0.1-0.1c0.5-0.5,0.9-1.2,0.9-2c-0.1-0.6,0.4-0.9,0.5-1.3c0.1-1.8,0-3.6-0.3-5.4
					c0.2-0.1,0.4-0.1,0.5-0.2c0.2-0.1,1-0.4,1.1-0.5c0.6-0.3,0.8-0.7,0.7-0.9c-0.1-0.2-0.2-0.4-0.4-0.5c-0.3-0.2-0.7-0.4-1.1-0.5
					c-0.2,0-0.4,0-0.5,0.1c0.1,0.2-0.1,0.3-0.5,0.5c-0.1-0.9-0.2-2.1-0.3-3.3c0.5,0,1,0.1,1.5,0.2c0.6,0.1,0.7,0.8-0.6,1.2
					c0.7-0.2,1.4-0.6,2-1.1c1.4-0.6,1.3-1.2,1.2-1.4c-0.3-0.8-2.9-2.4-4.2-2.4c0-0.4,0-0.8,0.1-1.1c0.1-0.1,0.1-0.3,0.1-0.4
					c-0.1-0.6-0.3-1.1-0.6-1.5c-0.2-0.2-0.4-0.3-0.6-0.4c-0.4-0.3-0.8-0.2-1.3-0.6c-0.3-0.3-1.6-1-1.4-0.6c0.3,0.9,0.5,1.8,0.6,2.7
					c0.1,0.4,0.3,1.3,0.3,1.7c0.1,0.4,0,0.7,0.1,1.1c-1.9,0.9-3.9,1.6-6,2.2c-0.7,0-1.3-0.1-1.9-0.5c0.2,0.1,0.3,0.3,0.3,0.5
					c0.2,0.2,0.3,0.5,0.3,0.7c0.1,0.3,0.3,0.5,0.6,0.5c0.1,0,0.7,0.2,0.8,0.2c0.8,0.3,0.6,0.4,1.1,0.5c0.2,0,2.9-0.8,5.3-1.3
					c0.1,1,0.2,2.2,0.4,3.4c0,0.2,0.1,0.3,0.1,0.5c-1.3,0.4-2.6,0.7-4,0.8c-1.2,0-2-0.1-1.8-0.7c-0.2,0.6,0.6,0.8,0.7,1
					c0.4,0.7,1.3,1.1,2.1,1c1.1-0.1,2.1-0.2,3.2-0.4c0.3,2.9,0.4,5.8-0.5,7.3c-1.3-0.8-2.5-1.7-3.7-2.7c-0.8-0.6-1.9-0.8-2.9-0.5
					c-1.3,0.3-1.8,1.5-2.3,2.7c-0.1,0.4-0.1,0.7,0,1.1C232.8,59.3,233,59.1,233.3,59.3z M234.4,58.7c0.7-0.7,1.8-1.1,2.8-0.8
					c1.1,0.2,2.2,0.6,3.1,1.2c0.1,0.1,0.3,0.2,0.4,0.2c-1.1,0.9-2.9,1.9-4.1,1.8C235.6,61,233.4,59.8,234.4,58.7L234.4,58.7z"/>
				<path class="st0" d="M268.6,48.8c-1.5-1.1-2.9-2.4-4.8-2.7c-1.2-0.2-2.4,0.1-3.4,0.8c-1,0.8-2.2,1.4-3.3,2
					c-0.4,0.3-0.8,0.5-1.3,0.7c-0.5,0-1.1,0.1-1.6,0.2c-0.5,0.2-1.1,0.2-1.7,0.1c-1-0.3-1.7-1-1.9-2c0,0.5-0.1,1-0.3,1.5
					c-0.1,0.2-0.2,0.3-0.3,0.5c-0.1,0.7,0.1,1.4,0.6,1.9c0.3,0.3,0.5,0.6,0.8,0.9c0.2,0.2,0.4,0.4,0.7,0.5c0.4,0.2,0.9,0.2,1.4,0
					c1-0.3,1.8-1,2.7-1.4c0.3-0.1,0.6-0.2,1-0.4c0.4-0.3,0.8-0.6,1.1-1c1.2-1,2.6-1.7,4.1-2c0.3-0.1,0.7-0.2,1-0.1
					c0.2,0.1,0.4,0.1,0.6,0.3c0.8,0.5,1.5,1.3,1.9,2.2c0.2,0.4,0.3,0.7,0.3,1.1c-0.1,0.7-0.2,1.3-0.4,1.9l-1,1.8
					c-0.3,0.7-0.7,1.3-1.2,1.9c-0.9,0.7-1.9,1.2-2.9,1.6c1.7-0.4,3.2-1.3,4.5-2.5c0.1-0.1,0.2-0.3,0.4-0.3c0.3-0.1,0.6-0.1,0.9,0
					c0.9,0,1.8-0.3,2.6-0.9c0.1-0.1,0.2-0.2,0.3-0.3c0.1-0.3,0.1-0.5,0.1-0.8c0.1-0.8,0.8-2.2,0.9-2.9c0.1-0.5-0.1-1.1-0.5-1.5
					C269.4,49.5,269,49.1,268.6,48.8z"/>
				<g>
					<path class="st0" d="M274.7,52.9c0.4,0.1,1.1,0.7,1.5,0c0.4-0.6,0.2-1,0.2-1.6c0.1-0.9,0.2-1.8,0.4-2.7
						c0.5-0.7,0.9-1.4,1.3-2.1c-1.2,1.9-2.2-0.4-2.3-0.8c-0.2-1.1-0.3-0.6-0.3-1.6c0.1-0.7,0.2-1.3,0.2-2c0-0.3-0.5-1.1-0.5-1.4
						c-0.1-0.3-0.1-1.1-0.2-1.4c-0.9,4.7-1.4,2.8-2,5.2c-0.3,1-0.4,2.1-0.4,3.1c0.5,1.3,0.1,2.7,0.6,4
						C273.4,52.3,274,52.8,274.7,52.9L274.7,52.9z"/>
					<path class="st0" d="M286.3,45.6c-0.1-0.3,0.2-1.3,0-1.6c-0.7-1-0.6-2.1-1.3-3.1c-0.5-0.5-1.1-1-1.8-1.3
						c-0.8-0.4-1.6,0.7-1.8,2c-0.2,0.7-0.5,1.3-0.9,1.9c0.3-0.5,0.8-0.9,1.3-1.2c0.2-0.1,0.5,0.1,0.6,0.3c0.5,1.4,0.7,8.3,0.7,9.8
						c-0.1,0.8-0.2,1.6-0.4,2.4c-0.2,0.8-0.4,1.6-0.8,2.4c-0.6,0.9-0.8,3.2-3.6,2.9c-0.9,0-1.9-0.2-2.7-0.7
						c-0.6-0.3-1.2-0.4-1.9-0.4c1,0.4,1.6,0.3,2.4,1.3c0.2,0.3,0.4,0.5,0.7,0.8c0.2,0.1,0.2,0.5,0.4,0.6c0.2,0.2,0.5,0.4,0.7,0.6
						c0.1,0.1,0,0.1-0.2,0c-0.1-0.1-0.2-0.1-0.3-0.2c0.4,0.6,1.3,1.5,2,1.4c3.6-0.4,2.6-4.3,3.6-5.4c0.4-0.4,1.6-1.1,1.8-1.6
						c0.3-0.6,0.2-1.3,0.6-1.7c0.6-0.6,0.6-0.2,1.1-2.3C286.6,52.1,286.3,46,286.3,45.6z"/>
				</g>
			</g>
			<path class="st0" d="M267.2,10.6C291.5,21.9,304,49.2,296.7,75c11.5-27.5-1.4-59.1-28.9-70.7c-26-10.9-56,0-68.9,25.1
				C214,7.2,242.9-0.7,267.2,10.6z"/>
			<g>
				<g>
					<path class="st0" d="M74.5,105.2h33.5c0.4,0,0.7,0.3,0.7,0.7v9.2c0,0.4-0.3,0.7-0.7,0.7H74.5c-0.4,0-0.7-0.3-0.7-0.7v-9.2
						C73.8,105.5,74.1,105.2,74.5,105.2z"/>
					<path class="st0" d="M107.9,118.2H74.3l8.3,8.3c0.1,0.1,0.3,0.2,0.5,0.2h24.8c0.4,0,0.7-0.3,0.7-0.7v-7.1
						C108.7,118.5,108.3,118.2,107.9,118.2z"/>
					<path class="st0" d="M107.9,90.3H75.2c-0.8,0-1.4,0.6-1.4,1.4c0,0,0,0,0,0v10.7c0,0.4,0.3,0.7,0.7,0.7H108
						c0.4,0,0.7-0.3,0.7-0.7l0,0V91C108.7,90.6,108.3,90.3,107.9,90.3z"/>
					<path class="st0" d="M169.3,90.3c-0.4,0-0.7,0.2-1,0.4l-17.7,17.7c-0.1,0.1-0.2,0.3-0.2,0.5V125c0,0.4,0.3,0.7,0.7,0.7
						c0.2,0,0.4-0.1,0.5-0.2l12.7-12.7v14h8.5v-22.5l13.9-13.9H169.3z"/>
					<path class="st0" d="M147.1,105.2h-35.2c-0.4,0-0.7,0.3-0.7,0.7c0,0,0,0,0,0v9.3c0,0.4,0.3,0.7,0.7,0.7h22.4
						c0.4,0,0.7,0.3,0.7,0.7v12.1l12.6-12.6c0.1-0.1,0.2-0.3,0.2-0.5v-9.7C147.8,105.5,147.5,105.2,147.1,105.2z"/>
					<path class="st0" d="M147.1,90.3h-34.5c-0.8,0-1.4,0.6-1.4,1.4v10.7c0,0.4,0.3,0.7,0.7,0.7h35.2c0.4,0,0.7-0.3,0.7-0.7V91
						C147.8,90.6,147.5,90.3,147.1,90.3z"/>
				</g>
				<g>
					<path class="st0" d="M230.9,90.3h-21.7c-0.8,0-1.4,0.6-1.4,1.4v0V126c0,0.4,0.3,0.7,0.7,0.7h22.4c0.4,0,0.7-0.3,0.7-0.7V91
						C231.6,90.6,231.3,90.3,230.9,90.3C230.9,90.3,230.9,90.3,230.9,90.3z M223.1,118.2h-6.8v-15.1h6.8V118.2z"/>
					<path class="st0" d="M204.6,114.9c0.4,0,0.7-0.3,0.7-0.7V91c0-0.4-0.3-0.7-0.7-0.7c0,0,0,0,0,0h-10.1c-0.4,0-0.7,0.1-1,0.4
						l-11.2,11.2c-0.3,0.3-0.3,0.7,0,1c0.1,0.1,0.3,0.2,0.5,0.2h12.5v3.3h-13.5c-0.4,0-0.7,0.3-0.7,0.7c0,0,0,0,0,0V126
						c0,0.4,0.3,0.7,0.7,0.7h22.8c0.4,0,0.7-0.3,0.7-0.7v-7.1c0-0.4-0.3-0.7-0.7-0.7h-13.5v-3.3H204.6z"/>
					<path class="st0" d="M284,90.3h-21.7c-0.8,0-1.4,0.6-1.4,1.4V126c0,0.4,0.3,0.7,0.7,0.7l0,0H284c0.4,0,0.7-0.3,0.7-0.7V91
						C284.7,90.6,284.4,90.3,284,90.3C284,90.3,284,90.3,284,90.3z M276.2,118.2h-6.8v-15.1h6.8L276.2,118.2z"/>
					<path class="st0" d="M257.6,114.9c0.4,0,0.7-0.3,0.7-0.7c0,0,0,0,0,0V91c0-0.4-0.3-0.7-0.7-0.7c0,0,0,0,0,0h-22.8
						c-0.4,0-0.7,0.3-0.7,0.7c0,0,0,0,0,0v11.4c0,0.4,0.3,0.7,0.7,0.7c0,0,0,0,0,0h13.5v3.3h-13.5c-0.4,0-0.7,0.3-0.7,0.7
						c0,0,0,0,0,0V126c0,0.4,0.3,0.7,0.7,0.7h22.8c0.4,0,0.7-0.3,0.7-0.7c0,0,0,0,0,0v-7.1c0-0.4-0.3-0.7-0.7-0.7l0,0h-13.5v-3.3
						H257.6z"/>
				</g>
				<g>
					<path class="st0" d="M167.6,41.9h9.2c0.4,0,0.7,0.3,0.7,0.7v32.7c0,0.4-0.3,0.7-0.7,0.7h-9.2c-0.4,0-0.7-0.3-0.7-0.7V42.6
						C166.9,42.2,167.2,41.9,167.6,41.9z"/>
					<g>
						<path class="st0" d="M91.4,52.9c0.3-0.3,0.4-0.6,0.4-1v-8.7c0-0.8-0.6-1.4-1.4-1.4c0,0,0,0,0,0h-89c-0.8,0-1.4,0.6-1.4,1.4
							c0,0.4,0.1,0.7,0.4,1L23.2,67c0.3,0.3,0.6,0.4,1,0.4h43.4c0.4,0,0.7,0.3,0.7,0.7c0,0,0,0,0,0V76L91.4,52.9z"/>
						<path class="st0" d="M56.7,76.4c-0.3-0.3-0.6-0.4-1-0.4H32.1l23.1,23.1c0.6,0.6,1.4,0.6,2,0L67.4,89c0.6-0.6,0.6-1.4,0-2
							L56.7,76.4z"/>
					</g>
					<path class="st0" d="M191.1,52.5c-0.4,0-0.7-0.3-0.7-0.7c0,0,0,0,0,0v-9.3c0-0.4-0.3-0.7-0.7-0.7h-9.2c-0.4,0-0.7,0.3-0.7,0.7
						v32.7c0,0.4,0.3,0.7,0.7,0.7c0.2,0,0.4-0.1,0.5-0.2l23.3-23.3L191.1,52.5z"/>
					<path class="st0" d="M163.7,41.9h-31.3c-0.8,0-1.4,0.6-1.4,1.4c0,0,0,0,0,0v8.5c0,0.4,0.3,0.7,0.7,0.7h4.1
						c0.4,0,0.7,0.3,0.7,0.7c0,0,0,0,0,0v22c0,0.4,0.3,0.7,0.7,0.7h9.4c0.4,0,0.7-0.3,0.7-0.7v-22c0-0.4,0.3-0.7,0.7-0.7
						c0,0,0,0,0,0h7.1c0.4,0,0.7,0.3,0.7,0.7c0,0,0,0,0,0v22c0,0.4,0.3,0.7,0.7,0.7h7.1c0.4,0,0.7-0.3,0.7-0.7c0,0,0,0,0,0V42.6
						C164.4,42.2,164.1,41.9,163.7,41.9C163.7,41.9,163.7,41.9,163.7,41.9z"/>
					<g>
						<path class="st0" d="M95,52.5h19.9c0.4,0,0.7-0.3,0.7-0.7c0,0,0,0,0,0v-9.3c0-0.4-0.3-0.7-0.7-0.7H95.7
							c-0.8,0-1.4,0.6-1.4,1.4v8.5C94.3,52.2,94.6,52.5,95,52.5z"/>
						<path class="st0" d="M95,54.7h19.9c0.4,0,0.7,0.3,0.7,0.7v9.2c0,0.4-0.3,0.7-0.7,0.7H95c-0.4,0-0.7-0.3-0.7-0.7v-9.2
							C94.3,55,94.6,54.7,95,54.7z"/>
						<path class="st0" d="M118.6,76c0.2,0,0.4-0.1,0.5-0.2l9.2-9.2c0.1-0.1,0.2-0.3,0.2-0.5V55.4c0-0.4-0.3-0.7-0.7-0.7
							c0,0,0,0,0,0h-9.2c-0.4,0-0.7,0.3-0.7,0.7c0,0,0,0,0,0v11.4c0,0.4-0.3,0.7-0.7,0.7c0,0,0,0,0,0H94.9c-0.4,0-0.7,0.1-1,0.4
							L85.8,76L118.6,76z"/>
					</g>
					<path class="st0" d="M118.5,41.9h9.3c0.4,0,0.7,0.3,0.7,0.7v2.9c0,0.4-0.3,0.7-0.7,0.7h-9.3c-0.4,0-0.7-0.3-0.7-0.7v-2.9
						C117.8,42.2,118.1,41.9,118.5,41.9z"/>
					<path class="st0" d="M118.5,48.3h9.3c0.4,0,0.7,0.3,0.7,0.7v2.9c0,0.4-0.3,0.7-0.7,0.7h-9.3c-0.4,0-0.7-0.3-0.7-0.7V49
						C117.8,48.6,118.1,48.3,118.5,48.3z"/>
				</g>
				<g>
					<polygon class="st0" points="141.9,80 140.1,83.2 138.2,80 137.2,80 137.2,86.3 138.2,86.3 138.2,82.1 140.1,85.3 141.9,82.1 
						141.9,86.3 143,86.3 143,80 					"/>
					<rect x="147.1" y="80" class="st0" width="1.1" height="6.4"/>
					<path class="st0" d="M164.3,80v5.3h-2.5V80h-1.1v5.3c0,0.6,0.5,1.1,1.1,1.1l0,0h2.5c0.6,0,1.1-0.5,1.1-1.1l0,0V80H164.3z"/>
					<g>
						<rect x="152.3" y="80" class="st0" width="1.1" height="6.4"/>
						<polygon class="st0" points="156.9,80 155.7,80 153.8,83.1 153.8,83.1 155.7,86.3 156.9,86.3 155.1,83.1 						"/>
					</g>
				</g>
				<g>
					<polygon class="st0" points="119,80 119,84.5 115.8,80 114.8,80 114.8,86.3 115.8,86.3 115.8,81.8 119,86.3 120.1,86.3 
						120.1,80 					"/>
					<polygon class="st0" points="77.3,80 77.3,82.6 74.8,82.6 74.8,80 73.8,80 73.8,86.3 74.8,86.3 74.8,83.7 77.3,83.7 77.3,86.3 
						78.4,86.3 78.4,80 					"/>
					<polygon class="st0" points="128.5,81 128.5,80 123.9,80 123.9,86.3 128.5,86.3 128.5,85.3 124.9,85.3 124.9,83.7 128.5,83.7 
						128.5,82.6 124.9,82.6 124.9,81 					"/>
					<path class="st0" d="M109.9,80v5.3h-2.5V80h-1.1v5.3c0,0.6,0.5,1.1,1.1,1.1h2.5c0.6,0,1.1-0.5,1.1-1.1V80H109.9z"/>
					<polygon class="st0" points="94.6,80 90,80 90,81 91.8,81 91.8,86.3 92.8,86.3 92.8,81 94.6,81 					"/>
					<path class="st0" d="M98.9,82.1V81h3.4V80h-3.4c-0.6,0-1.1,0.5-1.1,1.1v1.1c0,0.4,0.3,0.8,0.7,1l2.9,1v1.1H98v1.1h3.4
						c0.6,0,1.1-0.5,1.1-1.1v-1.1c0-0.4-0.3-0.8-0.7-1L98.9,82.1z"/>
					<polygon class="st0" points="85.4,80 84.2,80 81.9,86.3 83.1,86.3 84.8,81.5 86.6,86.3 87.7,86.3 					"/>
				</g>
				<g>
					<polygon class="st0" points="192.6,80 190.7,83.2 188.9,80 187.8,80 187.8,86.3 188.9,86.3 188.9,82.1 190.7,85.3 192.6,82.1 
						192.6,86.3 193.6,86.3 193.6,80 					"/>
					<rect x="215.2" y="80" class="st0" width="1.1" height="6.4"/>
					<path class="st0" d="M207.5,85.3V81h3.6V80h-3.6c-0.6,0-1.1,0.5-1.1,1.1l0,0v5.3h4.6v-3.7h-2.3v1.1h1.3v1.6H207.5z"/>
					<path class="st0" d="M221.4,85.3V81h3.6V80h-3.6c-0.6,0-1.1,0.5-1.1,1.1v5.3h4.6v-1.1H221.4z"/>
					<polygon class="st0" points="238.9,85.3 238.9,80 237.8,80 237.8,86.3 242.4,86.3 242.4,85.3 					"/>
					<polygon class="st0" points="200.6,80 199.5,80 197.2,86.3 198.3,86.3 200,81.5 201.8,86.3 202.9,86.3 					"/>
					<polygon class="st0" points="232,80 230.8,80 228.5,86.3 229.6,86.3 231.4,81.5 233.1,86.3 234.3,86.3 					"/>
				</g>
				<g>
					<polygon class="st0" points="255.9,80 254,83.2 252.2,80 251.1,80 251.1,86.3 252.2,86.3 252.2,82.1 254,85.3 255.9,82.1 
						255.9,86.3 256.9,86.3 256.9,80 					"/>
					<rect x="261" y="80" class="st0" width="1.1" height="6.4"/>
					<rect x="283.6" y="80" class="st0" width="1.1" height="6.4"/>
					<polygon class="st0" points="277.8,80 276.7,80 274.4,86.3 275.5,86.3 277.2,81.5 279,86.3 280.1,86.3 					"/>
					<polygon class="st0" points="270.8,80 266.2,80 266.2,80 266.2,80 266.2,86.3 267.2,86.3 267.2,81 269.8,81 269.8,82.2 
						268.1,83 269.7,86.3 270.8,86.3 269.5,83.5 270.8,82.9 					"/>
				</g>
				<g>
					<path class="st0" d="M176.6,80.5c-0.9,0-1.2,0.4-1.1,0.7c0.3,0.6,0.7,1.2,1.1,1.7c0.4-0.5,0.8-1.1,1.1-1.7
						C177.7,80.9,177.5,80.5,176.6,80.5z"/>
					<path class="st0" d="M176.6,85.6c0.9,0,1.2-0.4,1.1-0.7c-0.3-0.6-0.7-1.2-1.1-1.7c-0.4,0.5-0.8,1.1-1.1,1.7
						C175.4,85.3,175.7,85.6,176.6,85.6z"/>
					<path class="st0" d="M179.1,83.1c0-0.9-0.4-1.2-0.7-1.1c-0.6,0.3-1.2,0.7-1.7,1.1c0.5,0.4,1.1,0.8,1.7,1.1
						C178.7,84.3,179.1,84,179.1,83.1z"/>
					<path class="st0" d="M174,83.1c0,0.9,0.4,1.2,0.7,1.1c0.6-0.3,1.2-0.7,1.7-1.1c-0.5-0.4-1.1-0.8-1.7-1.1
						C174.4,81.9,174,82.2,174,83.1z"/>
				</g>
			</g>
		</g>
	</g>
</g>
</svg>
