<svg version="1.1" xmlns="http://www.w3.org/2000/svg" viewBox="0 0 169.3 72.4" width="169" height="72">
<style type="text/css">
	.st0{fill:#1B284F;}
</style>
<title>contents_logo_tokyo</title>
<path class="st0" d="M41.9,59.2h18.8c0.2,0,0.4,0.2,0.4,0.4v5.2c0,0.2-0.2,0.4-0.4,0.4H41.9c-0.2,0-0.4-0.2-0.4-0.4v-5.2
	C41.5,59.4,41.7,59.2,41.9,59.2z"/>
<path class="st0" d="M60.7,66.5H41.8l4.7,4.7c0.1,0.1,0.2,0.1,0.3,0.1h14c0.2,0,0.4-0.2,0.4-0.4l0,0v-4
	C61.1,66.7,60.9,66.5,60.7,66.5z"/>
<path class="st0" d="M60.7,50.8H42.3c-0.4,0-0.8,0.4-0.8,0.8v6c0,0.2,0.2,0.4,0.4,0.4h0h18.8c0.2,0,0.4-0.2,0.4-0.4v0v-6.4
	C61.1,51,60.9,50.8,60.7,50.8C60.7,50.8,60.7,50.8,60.7,50.8z"/>
<path class="st0" d="M95.2,50.8c-0.2,0-0.4,0.1-0.6,0.2l-10,10c-0.1,0.1-0.1,0.2-0.1,0.3v9.1c0,0.2,0.2,0.4,0.4,0.4
	c0.1,0,0.2,0,0.3-0.1l7.2-7.2v7.8h4.8V58.6l7.8-7.8H95.2z"/>
<path class="st0" d="M82.7,59.2H62.9c-0.2,0-0.4,0.2-0.4,0.4v0v5.2c0,0.2,0.2,0.4,0.4,0.4h0h12.6c0.2,0,0.4,0.2,0.4,0.4l0,0v6.8
	l7.1-7.1c0.1-0.1,0.1-0.2,0.1-0.3v-5.4C83.1,59.4,83,59.2,82.7,59.2z"/>
<path class="st0" d="M82.7,50.8H63.3c-0.4,0-0.8,0.4-0.8,0.8v6c0,0.2,0.2,0.4,0.4,0.4h0h19.8c0.2,0,0.4-0.2,0.4-0.4v0v-6.4
	C83.1,51,83,50.8,82.7,50.8C82.7,50.8,82.7,50.8,82.7,50.8z"/>
<path class="st0" d="M129.9,50.8h-12.2c-0.4,0-0.8,0.4-0.8,0.8c0,0,0,0,0,0v19.3c0,0.2,0.2,0.4,0.4,0.4l0,0h12.6
	c0.2,0,0.4-0.2,0.4-0.4V51.2C130.3,51,130.1,50.8,129.9,50.8z M125.5,66.5h-3.8V58h3.8L125.5,66.5z"/>
<path class="st0" d="M115.1,64.6c0.2,0,0.4-0.2,0.4-0.4l0,0v-13c0-0.2-0.2-0.4-0.4-0.4l0,0h-5.7c-0.2,0-0.4,0.1-0.6,0.2l-6.3,6.3
	c-0.2,0.2-0.2,0.4,0,0.6c0.1,0.1,0.2,0.1,0.3,0.1h7v1.8h-7.6c-0.2,0-0.4,0.2-0.4,0.4v0v10.7c0,0.2,0.2,0.4,0.4,0.4l0,0h12.8
	c0.2,0,0.4-0.2,0.4-0.4l0,0v-4c0-0.2-0.2-0.4-0.4-0.4l0,0h-7.6v-1.8H115.1z"/>
<path class="st0" d="M159.7,50.8h-12.2c-0.4,0-0.8,0.4-0.8,0.8c0,0,0,0,0,0v19.3c0,0.2,0.2,0.4,0.4,0.4h12.6c0.2,0,0.4-0.2,0.4-0.4
	V51.2C160.1,51,160,50.8,159.7,50.8z M155.3,66.5h-3.8V58h3.8V66.5z"/>
<path class="st0" d="M144.9,64.6c0.2,0,0.4-0.2,0.4-0.4v-13c0-0.2-0.2-0.4-0.4-0.4h-12.8c-0.2,0-0.4,0.2-0.4,0.4v6.4
	c0,0.2,0.2,0.4,0.4,0.4h7.6v1.8h-7.6c-0.2,0-0.4,0.2-0.4,0.4v10.6c0,0.2,0.2,0.4,0.4,0.4h12.8c0.2,0,0.4-0.2,0.4-0.4v-4
	c0-0.2-0.2-0.4-0.4-0.4h-7.6v-1.8H144.9z"/>
<path class="st0" d="M94.3,23.5h5.2c0.2,0,0.4,0.2,0.4,0.4v18.4c0,0.2-0.2,0.4-0.4,0.4h-5.2c-0.2,0-0.4-0.2-0.4-0.4V23.9
	C93.9,23.7,94.1,23.5,94.3,23.5z"/>
<path class="st0" d="M51.4,29.8c0.1-0.1,0.2-0.4,0.2-0.6v-4.9c0-0.4-0.4-0.8-0.8-0.8h-50c-0.4,0-0.8,0.4-0.8,0.8
	c0,0.2,0.1,0.4,0.2,0.6L13,37.7c0.1,0.1,0.4,0.2,0.6,0.2H38c0.2,0,0.4,0.2,0.4,0.4v0v4.4L51.4,29.8z"/>
<path class="st0" d="M31.9,43c-0.1-0.1-0.4-0.2-0.6-0.2H18.1l13,13c0.3,0.3,0.8,0.3,1.1,0l5.7-5.7c0.3-0.3,0.3-0.8,0-1.1L31.9,43z"
	/>
<path class="st0" d="M107.5,29.5c-0.2,0-0.4-0.2-0.4-0.4c0,0,0,0,0,0v-5.2c0-0.2-0.2-0.4-0.4-0.4l0,0h-5.2c-0.2,0-0.4,0.2-0.4,0.4
	c0,0,0,0,0,0v18.4c0,0.2,0.2,0.4,0.4,0.4c0.1,0,0.2,0,0.3-0.1l13.1-13.1L107.5,29.5z"/>
<path class="st0" d="M92.1,23.5H74.5c-0.4,0-0.8,0.4-0.8,0.8v0v4.8c0,0.2,0.2,0.4,0.4,0.4l0,0h2.3c0.2,0,0.4,0.2,0.4,0.4
	c0,0,0,0,0,0v12.4c0,0.2,0.2,0.4,0.4,0.4l0,0h5.3c0.2,0,0.4-0.2,0.4-0.4v0V29.9c0-0.2,0.2-0.4,0.4-0.4l0,0h4c0.2,0,0.4,0.2,0.4,0.4
	c0,0,0,0,0,0v12.4c0,0.2,0.2,0.4,0.4,0.4l0,0h4c0.2,0,0.4-0.2,0.4-0.4v0V23.9C92.5,23.7,92.3,23.5,92.1,23.5
	C92.1,23.5,92.1,23.5,92.1,23.5z"/>
<path class="st0" d="M53.5,29.5h11.2c0.2,0,0.4-0.2,0.4-0.4c0,0,0,0,0,0v-5.2c0-0.2-0.2-0.4-0.4-0.4l0,0H53.9
	c-0.4,0-0.8,0.4-0.8,0.8v4.8C53.1,29.4,53.2,29.5,53.5,29.5z"/>
<path class="st0" d="M53.5,30.7h11.2c0.2,0,0.4,0.2,0.4,0.4v5.2c0,0.2-0.2,0.4-0.4,0.4H53.5c-0.2,0-0.4-0.2-0.4-0.4v-5.2
	C53.1,30.9,53.2,30.7,53.5,30.7z"/>
<path class="st0" d="M66.7,42.7c0.1,0,0.2,0,0.3-0.1l5.2-5.2c0.1-0.1,0.1-0.2,0.1-0.3v-6c0-0.2-0.2-0.4-0.4-0.4l0,0h-5.2
	c-0.2,0-0.4,0.2-0.4,0.4c0,0,0,0,0,0v6.4c0,0.2-0.2,0.4-0.4,0.4l0,0H53.4c-0.2,0-0.4,0.1-0.6,0.2l-4.6,4.6L66.7,42.7z"/>
<path class="st0" d="M66.7,23.5h5.2c0.2,0,0.4,0.2,0.4,0.4v1.6c0,0.2-0.2,0.4-0.4,0.4h-5.2c-0.2,0-0.4-0.2-0.4-0.4v-1.6
	C66.3,23.7,66.4,23.5,66.7,23.5z"/>
<path class="st0" d="M66.7,27.1h5.2c0.2,0,0.4,0.2,0.4,0.4v1.6c0,0.2-0.2,0.4-0.4,0.4h-5.2c-0.2,0-0.4-0.2-0.4-0.4v-1.6
	C66.3,27.3,66.4,27.1,66.7,27.1z"/>
<polygon class="st0" points="79.8,45 78.8,46.8 77.8,45 77.2,45 77.2,48.6 77.8,48.6 77.8,46.2 78.8,48 79.8,46.2 79.8,48.6
	80.4,48.6 80.4,45 "/>
<rect x="82.7" y="45" class="st0" width="0.6" height="3.6"/>
<path class="st0" d="M92.4,45v3H91v-3h-0.6v3c0,0.3,0.3,0.6,0.6,0.6h1.4c0.3,0,0.6-0.3,0.6-0.6v-3H92.4z"/>
<rect x="85.6" y="45" class="st0" width="0.6" height="3.6"/>
<polygon class="st0" points="88.3,45 87.6,45 86.5,46.8 86.5,46.8 87.6,48.5 88.3,48.5 87.2,46.8 "/>
<polygon class="st0" points="66.9,45 66.9,47.5 65.2,45 64.6,45 64.6,48.6 65.2,48.6 65.2,46 66.9,48.6 67.5,48.6 67.5,45 "/>
<polygon class="st0" points="43.5,45 43.5,46.5 42.1,46.5 42.1,45 41.5,45 41.5,48.6 42.1,48.6 42.1,47.1 43.5,47.1 43.5,48.6
	44.1,48.6 44.1,45 "/>
<polygon class="st0" points="72.3,45.6 72.3,45 69.7,45 69.7,48.6 72.3,48.6 72.3,48 70.3,48 70.3,47.1 72.3,47.1 72.3,46.5
	70.3,46.5 70.3,45.6 "/>
<path class="st0" d="M61.8,45v3h-1.4v-3h-0.6v3c0,0.3,0.3,0.6,0.6,0.6h1.4c0.3,0,0.6-0.3,0.6-0.6v-3H61.8z"/>
<polygon class="st0" points="53.2,45 50.6,45 50.6,45.6 51.6,45.6 51.6,48.6 52.2,48.6 52.2,45.6 53.2,45.6 "/>
<path class="st0" d="M55.7,46.2v-0.6h1.9V45h-1.9c-0.3,0-0.6,0.3-0.6,0.6v0.6c0,0.2,0.2,0.5,0.4,0.6l1.6,0.6V48h-1.9v0.6h1.9
	c0.3,0,0.6-0.3,0.6-0.6v-0.6c0-0.3-0.2-0.5-0.4-0.6L55.7,46.2z"/>
<polygon class="st0" points="48,45 47.4,45 46.1,48.6 46.7,48.6 47.7,45.8 48.7,48.6 49.3,48.6 "/>
<polygon class="st0" points="108.3,45 107.3,46.8 106.2,45 105.6,45 105.6,48.6 106.2,48.6 106.2,46.2 107.3,48 108.3,46.2
	108.3,48.6 108.9,48.6 108.9,45 "/>
<rect x="121" y="45" class="st0" width="0.6" height="3.6"/>
<path class="st0" d="M116.7,48v-2.4h2V45h-2c-0.3,0-0.6,0.3-0.6,0.6v3h2.6v-2.1h-1.3v0.6h0.7V48L116.7,48z"/>
<path class="st0" d="M124.5,48v-2.4h2V45h-2c-0.3,0-0.6,0.3-0.6,0.6v3h2.6V48L124.5,48z"/>
<polygon class="st0" points="134.4,48 134.4,45 133.8,45 133.8,48.6 136.4,48.6 136.4,48 "/>
<polygon class="st0" points="112.8,45 112.2,45 110.9,48.6 111.5,48.6 112.5,45.8 113.5,48.6 114.1,48.6 "/>
<polygon class="st0" points="130.5,45 129.8,45 128.5,48.6 129.2,48.6 130.2,45.8 131.1,48.6 131.8,48.6 "/>
<polygon class="st0" points="143.9,45 142.9,46.8 141.8,45 141.2,45 141.2,48.6 141.8,48.6 141.8,46.2 142.9,48 143.9,46.2
	143.9,48.6 144.5,48.6 144.5,45 "/>
<rect x="146.8" y="45" class="st0" width="0.6" height="3.6"/>
<rect x="159.5" y="45" class="st0" width="0.6" height="3.6"/>
<polygon class="st0" points="156.3,45 155.6,45 154.3,48.6 155,48.6 155.9,45.8 156.9,48.6 157.6,48.6 "/>
<polygon class="st0" points="152.3,45 149.7,45 149.7,45 149.7,45 149.7,48.6 150.3,48.6 150.3,45.6 151.7,45.6 151.7,46.2
	150.8,46.7 151.7,48.6 152.3,48.6 151.6,47 152.3,46.6 "/>
<path class="st0" d="M99.3,45.3c-0.5,0-0.7,0.2-0.6,0.4c0.2,0.3,0.4,0.7,0.6,1c0.2-0.3,0.4-0.6,0.6-1C100,45.5,99.8,45.3,99.3,45.3z
	"/>
<path class="st0" d="M99.3,48.2c0.5,0,0.7-0.2,0.6-0.4c-0.2-0.3-0.4-0.7-0.6-1c-0.2,0.3-0.4,0.6-0.6,1C98.7,48,98.8,48.2,99.3,48.2z
	"/>
<path class="st0" d="M100.8,46.7c0-0.5-0.2-0.7-0.4-0.6c-0.3,0.2-0.7,0.4-1,0.6c0.3,0.2,0.6,0.4,1,0.6
	C100.5,47.4,100.8,47.2,100.8,46.7z"/>
<path class="st0" d="M97.9,46.7c0,0.5,0.2,0.7,0.4,0.6c0.3-0.2,0.7-0.4,1-0.6c-0.3-0.2-0.6-0.4-1-0.6C98.1,46.1,97.9,46.2,97.9,46.7
	z"/>
<path class="st0" d="M127.9,21.5c1.9,0,0,4.1-1.7,4.5c-0.7,0.2-1.4-0.3-0.7-1.4l1.1-2c0.3-0.6-0.4-0.8-1-0.4c0.2,0,0.3,0.2,0.1,0.4
	l-1.4,2.5c-0.8,1.2-2.1,0.9-1.4-0.4c0.3-0.5,2-3.5,2.3-4c0.5-1.1,0-2.5-1.2-3c-0.2-0.1-0.4-0.1-0.6-0.2c-3.3-0.6-4.7,2.1-4.5,3.5
	c0,0.8,0.7,1.4,1.5,1.4c0.2,0,0.5-0.1,0.7-0.2c1.1-0.8,0.4-2.1-0.3-1.9c-0.3,0.1-0.4,0.4-0.3,0.6c0.1,0.2,0.3,0.4,0.5,0.3
	c0.1,0.3-0.1,0.7-0.4,0.8c-0.4,0.2-0.9,0-1.2-0.4c-0.5-0.9-0.3-2,0.5-2.7c0.8-1,2.3-1.1,3.3-0.3c0,0,0.1,0.1,0.1,0.1
	c0.8,1-0.5,2.5-1.9,4.8c-1.5,2.5-0.3,3.7,0.9,3.7c0.8,0,1.5-0.3,2-0.9c0.3,0.6,0.8,0.9,1.5,0.9C128.7,27.4,130.5,21.3,127.9,21.5z"
	/>
<path class="st0" d="M142.4,27.2c-0.4-0.1-0.7-0.4-0.6-0.8c0-0.1,0.1-0.2,0.1-0.3l2-3.5h0.4c0.5,0,1-0.3,1.3-0.7h-1.3l0.4-0.8
	c0.5-0.8-1.2-1.3-2.1-0.2c0.2-0.1,0.6-0.1,0.4,0.3l-0.4,0.7h-0.5c-0.3,0-0.4-0.1-0.3-0.3c-1.1,0-1.3,1-0.7,1h1l-1,1.8
	c-1,1.6-1.7,2.7-2.4,2.7c-0.5,0-0.7-0.4-0.4-0.8l1.5-2.7c0.4-0.5,0.3-1.2-0.2-1.5c-0.2-0.1-0.4-0.2-0.6-0.2
	c-0.7-0.1-1.4,0.1-1.8,0.7c-0.2-0.4-0.7-0.7-1.1-0.7c-0.6,0-1.1,0.3-1.4,0.8l-2.1,3.7c-0.4,0.7-0.7,0.8-1,0.8
	c-0.4,0-0.8-0.5-0.5-1.1l1.9-3.4c0.5-0.8-1.2-1.2-2.1-0.2c0.2-0.1,0.6-0.1,0.4,0.3l-0.9,1.6c-1.3,2.1-2.1,2.8-2.9,2.9
	c0.9-0.2,1.8-0.6,2.5-1.3c0.1,0.8,0.8,1.3,1.6,1.3c1,0,1.5-0.9,1.9-1.7L135,23c0.2-0.3,0.4-0.4,0.6-0.2c0.3,0.2,0,0.6-0.2,1
	l-1.6,2.9c-0.1,0.2-0.4,0.4-0.6,0.3c0.2,0.6,1.7,0.7,2.4-0.5l1.6-2.8v0c0.3-0.6,0.9-1.1,1.6-1c0.7,0.1,0.7,0.7,0,1.8l-1,1.8
	c-0.4,0.6,0.2,1.1,0.9,1.1c0.8,0,1.6-0.4,2.2-1c0.2,0.6,0.8,1.1,1.5,1c0.8,0,1.5-0.4,1.9-1.1C143.8,26.9,143.1,27.2,142.4,27.2z"/>
<path class="st0" d="M155.3,20.7c-0.5,0-1,0.3-1.1,0.8c2.1-0.7,0.2,5.5-2.2,5.7c-0.5,0.1-0.6-0.4-0.4-0.8l1.5-2.7
	c0.4-0.6,0.6-1.6-0.5-1.7c-0.5,0-0.9,0-1.4,0.2c-0.7-0.4-1.6-0.2-2.1,0.4c0.2-0.1,0.6-0.1,0.4,0.3l-0.9,1.6c-0.6,1-1.9,2.8-2.8,2.7
	c-0.4,0-0.6-0.5-0.5-1.1c0.4-1.2,1.2-2.4,2.2-3.3c0.9-0.7,0.3,1.7-1.4,2.3c2.2-0.3,3.1-3,1.8-3.2c-0.7-0.1-2.1,0.1-3.3,2.5
	c-1,1.7-0.1,2.9,1.1,2.9c1.8,0,3.5-1,4.4-2.6l1.1-2c0.2-0.1,0.4-0.2,0.7-0.2c0.6,0.1,0.7,0.7,0.2,1.6l-1,1.7
	c-0.5,0.9,0.1,1.4,0.7,1.4C155.2,27.4,158.3,20.7,155.3,20.7z"/>
<path class="st0" d="M132.7,21.5c0.4-0.7,1.2-1.2,2-1.3c-0.7,0-0.9-0.6-0.5-1.3c-0.4,0.7-1.2,1.2-2,1.3
	C132.8,20.2,133.1,20.8,132.7,21.5z"/>
<path class="st0" d="M124.7,34.6c0.3-0.4,0.7-0.6,1.2-0.7h-2.5L125,31c0.5-0.6,1.2-1.1,1.9-1.4c-0.9,0.2-1.8,0.3-2.7,0.3
	c-2.1,0-3.2-0.4-4.3-0.2c-0.9,0.2-1.6,0.8-2.1,1.5c1.7-1,3.7,0.2,5.6-0.1c-0.2,0-0.4,0.3-0.5,0.5l-1.4,2.4h-2.3
	c-0.3,0-0.4-0.1-0.3-0.3c-1.1,0-1.3,1-0.7,1h2.9l-1.9,3.3c-2.2,3.4-5.6,1.3-4.9-1c0.3-0.9,1.2-1.4,2.1-1.1c0.1,0,0.3,0.1,0.4,0.2
	c0.7,0.5,0.4,1.3,0.1,1.4c0-0.3-0.3-0.5-0.6-0.4c-0.2,0-0.4,0.2-0.4,0.5c-0.1,1,1.3,1.1,1.8-0.1c0.2-0.8-0.3-1.7-1.1-1.9
	c-0.2-0.1-0.4-0.1-0.6,0c-2.9,0.1-3,4.8,0.5,5.1c1.4,0.1,3.1-0.2,4.6-2.7l1.8-3.2h0.8c-0.8,1-0.8,2.4,0,3.5
	C123.1,37,124,35.4,124.7,34.6z"/>
<path class="st0" d="M147.4,35.6c0.7,0.2,1.4,0.1,2-0.4c-1.2,0.7-2.5-1.5-3.9-0.2c2.1-0.7,0.4,5-2,5.3c-0.7,0.1-0.9-0.5-0.6-1
	l1.5-2.7c0.3-0.5,0-1.2-0.5-1.5c-0.2-0.1-0.4-0.1-0.6-0.1c-0.6,0-1.1,0.3-1.4,0.8l-2.1,3.7c-0.4,0.7-0.7,0.8-1,0.8
	c-0.4,0-0.8-0.5-0.5-1.1l1.9-3.4c0.5-0.8-1.2-1.2-2.1-0.2c0.2-0.1,0.6-0.1,0.4,0.3l-0.9,1.6c-0.9,1.4-2,3.1-3.1,2.8
	c-0.4-0.1-0.6-0.6-0.4-1c0-0.1,0.1-0.1,0.1-0.2l2-3.5h0.4c0.5,0,1-0.3,1.3-0.7h-1.3l0.4-0.8c0.5-0.8-1.2-1.3-2.1-0.2
	c0.2-0.1,0.6-0.1,0.4,0.3l-0.4,0.7h-0.5c-0.3,0-0.4-0.1-0.3-0.3c-1.1,0-1.3,1-0.7,1h1l-1,1.8c-1,1.7-1.4,2.8-2.1,2.7
	c-0.1,0-0.2-0.1-0.3-0.2c0.1-0.1,0.2-0.2,0.2-0.2c0.8-1-0.3-2.7-0.3-4c0.5-0.8-1.2-1.2-2.1-0.2c0.2-0.1,0.6-0.1,0.4,0.3l-0.9,1.6
	c-0.6,1-1.9,2.8-2.8,2.7c-0.4,0-0.6-0.5-0.5-1.1c0.4-1.2,1.2-2.4,2.2-3.3c0.9-0.7,0.3,1.7-1.4,2.3c2.2-0.3,3.1-3,1.8-3.2
	c-0.7-0.1-2.1,0.1-3.3,2.5c-1,1.7-0.1,2.9,1.1,2.9c1.8,0,3.5-1,4.4-2.6l0.1-0.1c0.3,0.5,0.5,1,0.6,1.6c0,0.5-0.4,1.3-2.1,0.8
	c0.8,0.5,1.8,0.5,2.6,0c0.2,0.3,0.5,0.4,0.8,0.4c0.6-0.1,1-0.4,1.4-0.9c0.3,0.5,0.8,0.9,1.4,0.9c1,0,1.9-0.4,2.6-1.1
	c0.2,0.7,0.8,1.1,1.5,1.1c1,0,1.5-0.9,1.9-1.7l1.6-2.7c0.2-0.3,0.4-0.4,0.6-0.2c0.3,0.2,0,0.6-0.2,1l-0.4,0.7
	c-1,1.7-0.1,2.9,1.1,2.9C146.1,40.5,148.3,36.8,147.4,35.6z"/>
<path class="st0" d="M159.9,33.8c-0.5,0-1,0.3-1.1,0.8c2.1-0.7,0.1,5.7-2.4,5.7c-0.9,0-1.2-0.6-0.7-1.5l4.8-8.5
	c0.5-0.8-1.2-1.3-2.1-0.2c0.2-0.1,0.6-0.1,0.4,0.3l-4.1,7.1c-1,1.6-1.7,2.5-2.4,2.7c-0.5,0.1-1.1-0.1-0.8-0.6l1.8-3.1
	c0.5-0.8,0.8-1.4,1.5-1.3c-0.7-0.4-1.6-0.4-2.4,0c-2.7-0.9-4.9,2.2-5.2,3.7c-0.2,1.5,1.1,2.2,2.6,1.2c-0.6,0.3-1.2,0.1-1.3-0.7
	c-0.2-1.4,2.1-4.5,3.2-3.9c0.3,0.2,0,0.9-0.4,1.6l-0.9,1.6c-0.6,1.2,0.2,2,1.7,1.8c0.8-0.1,1.6-0.5,2.2-1.1c0.3,0.7,1.1,1.2,1.8,1.1
	C159.7,40.7,162.9,33.8,159.9,33.8z"/>
<path class="st0" d="M150.3,6c13.7,6.4,20.7,21.7,16.6,36.2c6.5-15.5-0.7-33.3-16.2-39.8c-14.6-6.2-31.6,0-38.8,14.1
	C120.4,4.1,136.6-0.4,150.3,6z"/>
<path class="st0" d="M140,34.6c0.4-0.7,1.2-1.2,2-1.3c-0.7,0-0.9-0.6-0.5-1.3c-0.4,0.7-1.2,1.2-2,1.3
	C140.2,33.4,140.4,33.9,140,34.6z"/>
</svg>