<?xml version="1.0" standalone="no"?><!DOCTYPE svg PUBLIC "-//W3C//DTD SVG 1.1//EN" "http://www.w3.org/Graphics/SVG/1.1/DTD/svg11.dtd"><svg t="1718504070219" class="icon" viewBox="0 0 1024 1024" version="1.1" xmlns="http://www.w3.org/2000/svg" p-id="13496" xmlns:xlink="http://www.w3.org/1999/xlink" width="200" height="200"><path d="M947.712 508.48 555.008 140.224C547.968 132.672 538.176 128.384 527.872 128.384S507.776 132.672 500.672 140.224L73.92 510.912C63.872 521.728 61.184 537.472 67.072 550.976s19.264 22.336 33.984 22.336l92.288 0 0 280.32C193.344 888.768 220.864 896 256 896l63.36 0 21.184 0 7.04 0L339.456 896c23.424 0 42.368-19.008 42.368-42.368l0-171.264C381.824 659.008 400.832 640 424.32 640l173.888 0c23.488 0 42.432 19.008 42.432 42.368l0 171.264c0 23.36 19.008 42.368 42.432 42.368l84.224 0C802.496 896 832 888.768 832 853.632l0-280.32 90.688 0c0.128 0 0.128 0 0.256 0 20.48 0 37.056-16.64 37.056-37.12C960 525.248 955.2 515.392 947.712 508.48z" fill="#010101" p-id="13497"></path></svg>