<svg version="1.1" xmlns="http://www.w3.org/2000/svg" viewBox="0 0 283.5 93.2" width="284" height="93">
<rect x="259.4" y="44.2" width="1.8" height="7"/>
<rect x="281.7" y="44.2" width="1.8" height="7"/>
<polygon points="256.5,44.2 254.8,44.2 253,47.2 251.3,44.2 249.5,44.2 249.5,51.2 251.3,51.2 251.3,47.7 253,50.7 254.8,47.7
	254.8,51.2 256.5,51.2 "/>
<polygon points="276.6,44.2 276.6,44.2 274.8,44.2 272.3,51.2 274.1,51.2 275.7,46.9 277.3,51.2 279.1,51.2 "/>
<path d="M268.1,44.2H264v7h1.8v-5.3h2.2v1l-1.5,0.5l1.4,3.7h1.9l-1-2.7c0.6-0.3,1-0.9,1-1.6v-1.2C269.7,44.9,269,44.2,268.1,44.2"/>
<rect x="214.4" y="44.2" width="1.8" height="7"/>
<polygon points="236.8,44.2 236.8,51.2 242,51.2 242,49.4 238.5,49.4 238.5,44.2 "/>
<polygon points="193.9,44.2 192.1,44.2 190.3,47.2 188.6,44.2 186.8,44.2 186.8,51.2 188.6,51.2 188.6,47.7 190.3,50.7 192.1,47.7
	192.1,51.2 193.9,51.2 "/>
<polygon points="203.3,51.2 200.7,44.2 199,44.2 196.4,51.2 198.3,51.2 199.9,46.9 201.4,51.2 "/>
<polygon points="231.6,44.2 231.6,44.2 229.9,44.2 227.3,51.2 229.2,51.2 230.8,46.9 232.3,51.2 234.2,51.2 "/>
<path d="M211.6,44.2h-4.1c-0.9,0-1.6,0.7-1.6,1.6v5.5h5.7v-4.4h-2.9v1.8h1.1v0.9h-2.2v-3.5h4L211.6,44.2z"/>
<path d="M220.8,49.4v-3.5h4v-1.8h-4.1c-0.9,0-1.6,0.7-1.6,1.6c0,0,0,0,0,0v5.5h5.7v-1.8L220.8,49.4z"/>
<rect x="149.4" y="44.2" width="1.8" height="7"/>
<polygon points="146.6,44.2 144.8,44.2 143.1,47.2 141.3,44.2 139.5,44.2 139.5,51.2 141.3,51.2 141.3,47.7 143.1,50.7 144.8,47.7
	144.8,51.2 146.6,51.2 "/>
<path d="M165,51.2h2.5c0.9,0,1.6-0.7,1.6-1.6v-5.5h-1.8v5.3h-2.2v-5.3h-1.8v5.5C163.4,50.5,164.1,51.2,165,51.2
	C165,51.2,165,51.2,165,51.2"/>
<rect x="154" y="44.2" width="1.8" height="7"/>
<polygon points="160.6,44.2 158.5,44.2 156.5,47.7 158.5,51.2 160.6,51.2 158.5,47.7 "/>
<polygon points="98.3,44.2 92.5,44.2 92.5,45.9 94.5,45.9 94.5,51.2 96.3,51.2 96.3,45.9 98.3,45.9 "/>
<polygon points="88.3,44.2 88.3,44.2 86.5,44.2 83.9,51.2 85.8,51.2 87.4,46.9 88.9,51.2 90.8,51.2 "/>
<path d="M110.7,51.2h2.5c0.9,0,1.6-0.7,1.6-1.6v-5.5h-1.8v5.3h-2.2v-5.3h-1.8v5.5C109.1,50.5,109.8,51.2,110.7,51.2"/>
<polygon points="122.2,44.2 122.2,48.1 119.4,44.2 117.7,44.2 117.7,51.2 119.4,51.2 119.4,47.2 122.2,51.2 124,51.2 124,44.2 "/>
<polygon points="79.6,44.2 79.6,46.8 77.4,46.8 77.4,44.2 75.7,44.2 75.7,51.2 77.4,51.2 77.4,48.6 79.6,48.6 79.6,51.2 81.4,51.2
	81.4,44.2 "/>
<polygon points="132.1,44.2 126.8,44.2 126.8,51.2 132.1,51.2 132.1,49.4 128.6,49.4 128.6,48.6 132.1,48.6 132.1,46.8 128.6,46.8
	128.6,45.9 132.1,45.9 "/>
<path d="M106.1,45.9v-1.8h-3.7c-0.9,0-1.6,0.7-1.6,1.6c0,0,0,0,0,0v0.7c0,0.7,0.4,1.3,1,1.5l2.9,1.1v0.4h-3.5v1.8h3.7
	c0.9,0,1.6-0.7,1.6-1.6c0,0,0,0,0,0v-0.7c0-0.7-0.4-1.3-1-1.5l-2.9-1.1v-0.4L106.1,45.9z"/>
<rect x="177" y="46.7" transform="matrix(0.7075 -0.7068 0.7068 0.7075 18.372 139.7395)" width="2" height="2"/>
<path d="M89,6.4H0l24.4,24.4c0.8,0.8,1.9,1.2,3,1.3h43v8.5l23.2-23.2c2.5-2.5,2.5-6.6,0-9.1C92.3,7.1,90.7,6.4,89,6.4"/>
<path d="M56.6,40.5H34.1l24.1,24.1l12.1-12.1L59.5,41.7C58.7,41,57.7,40.5,56.6,40.5z"/>
<path d="M171.5,6.4h-10.6c-0.6-2.9-3.4-4.7-6.3-4.2c-2.1,0.4-3.7,2.1-4.2,4.2h-6v10.7h4.1l-4.1,23.5h7.3c2.1,0,3.8-1.5,4.2-3.5
	l3.5-19.9h9.9v19c0,2.1,1.4,3.9,3.4,4.3c2.3,0.5,4.6-1,5-3.3c0.1-0.3,0.1-0.6,0.1-0.8V12.8C177.9,9.3,175.1,6.4,171.5,6.4"/>
<path d="M182.9,6.4v28.8c0,2.9,2.5,5.3,5.4,5.3c2.9,0,5.2-2.4,5.3-5.3V6.4H182.9z"/>
<path d="M204.2,19.2v-8.5c0-2.4-1.9-4.3-4.3-4.3h-4.3v27.7c0,3.5,2.9,6.4,6.4,6.4c1.7,0,3.3-0.7,4.5-1.9l19.4-19.4H204.2z"/>
<polygon points="129.6,6.4 123.2,6.4 123.2,17.1 133.8,17.1 133.8,10.7 129.6,10.7 "/>
<polygon points="140.2,0 129.6,0 129.6,6.4 133.8,6.4 133.8,10.7 140.2,10.7 "/>
<path d="M121,11.7c0-2.9-2.4-5.3-5.3-5.3h-16v10.7h16C118.6,17.1,121,14.7,121,11.7"/>
<path d="M121,24.5c0-2.9-2.4-5.3-5.3-5.3h-16v10.7h16C118.6,29.9,121,27.5,121,24.5"/>
<path d="M123.2,19.2V32h-21.7c-1.1,0-2.2,0.4-3,1.3l-7.3,7.3h36.3c3.5,0,6.4-2.9,6.4-6.4c0,0,0,0,0,0V19.2H123.2z"/>
<path d="M145,54.8h-30.2v12.8H145c3.5,0,6.4-2.9,6.4-6.4C151.4,57.7,148.6,54.8,145,54.8"/>
<path d="M114.8,69.8v10.7H137v12.8l12.5-12.5c2.5-2.5,2.5-6.6,0-9.1c-1.2-1.2-2.8-1.9-4.5-1.9L114.8,69.8z"/>
<path d="M190.5,54.8h-16.3c-1.1,0-2.2,0.4-3,1.2l-17.1,17.1v18.1L168,77.3v9.5c0,2.3,1.6,4.2,3.9,4.5c2.3,0.2,4.4-1.5,4.6-3.9
	c0-0.1,0-0.3,0-0.4V68.8L190.5,54.8z"/>
<path d="M106.3,91.3c2.4,0,4.3-1.9,4.3-4.3c0-0.1,0-0.3,0-0.4c-0.3-2.2-2.2-3.9-4.4-3.8H77.9l8.5,8.5H106.3z"/>
<path d="M110.5,61.2c0-3.5-2.9-6.4-6.4-6.4l0,0H75.7L62.9,67.6h41.3C107.7,67.6,110.5,64.8,110.5,61.2z"/>
<path d="M110.5,75.1c0-2.9-2.4-5.3-5.3-5.3H75.7v10.7h29.6C108.2,80.4,110.5,78,110.5,75.1z"/>
<path d="M198.3,56.1l-11.6,11.6H201v3.3h-14.2v20.3h19.8c2.1,0,3.9-1.4,4.3-3.4c0.5-2.3-1-4.6-3.3-5c-0.3-0.1-0.6-0.1-0.8-0.1h-10
	v-3.3h14.2V54.8h-9.6C200.2,54.8,199.1,55.3,198.3,56.1z"/>
<path d="M215.2,91.3h22.4c2.4,0,4.3-1.9,4.3-4.3c0,0,0,0,0,0V54.8h-26.7V91.3z M223.7,67.6h9.6v13.7c0,0.8-0.6,1.4-1.4,1.4h-6.8
	c-0.8,0-1.4-0.6-1.4-1.4c0,0,0,0,0,0L223.7,67.6z"/>
<path d="M246.1,88.1c0,1.8,1.4,3.2,3.2,3.2s3.2-1.4,3.2-3.2c0,0,0,0,0,0V54.8h-6.4V88.1z"/>
<path d="M256.8,54.8v17.1l6.4,6.4h11.7v3c0,0.8-0.6,1.4-1.4,1.4h-12.4c-2.4,0-4.3,1.9-4.3,4.3l0,0c0,2.4,1.9,4.3,4.3,4.3l0,0h18.1
	c2.4,0,4.3-1.9,4.3-4.3V54.8H256.8z M274.9,69.7h-9.6v-2.1h9.6V69.7z"/>
</svg>
